<svg xmlns="http://www.w3.org/2000/svg" width="172.417" height="33.125" viewBox="0 0 172.417 33.125">
    <defs>
        <clipPath id="sqh8ax2fqa">
            <path data-name="사각형 2038" style="fill:none" d="M0 0h172.417v33.125H0z"/>
        </clipPath>
    </defs>
    <g data-name="그룹 1660" style="clip-path:url(#sqh8ax2fqa)">
        <path data-name="패스 1612" d="M25.859 30.059c.234 0 .352.144.352.43a1.551 1.551 0 0 1-.284.859 3.187 3.187 0 0 1-.83.82 4.924 4.924 0 0 1-2.861.938 5.712 5.712 0 0 1-2.451-.449 6.9 6.9 0 0 1-1.738-1.2 10.176 10.176 0 0 1-1.465-1.728q-.665-.976-1.25-2.031l-1.153-2.11q-2.011-3.827-3.4-4.472Q6.815 31.758 2.285 32.93a2.547 2.547 0 0 1-.655.078 1.835 1.835 0 0 1-.664-.117 1.663 1.663 0 0 1-.517-.312A1.043 1.043 0 0 1 0 31.788a.771.771 0 0 1 .312-.655q3.38-2.479 6.817-12.773A70.575 70.575 0 0 0 9.9 7.539a14.077 14.077 0 0 0 .215-2.07 3.5 3.5 0 0 0-1.494.41q-.693.37-1.182.684a1.615 1.615 0 0 1-.8.312 1.436 1.436 0 0 1-.674-.2 2.8 2.8 0 0 1-.654-.488 1.879 1.879 0 0 1-.683-1.211 1.249 1.249 0 0 1 .323-.876 2.889 2.889 0 0 1 .81-.605 6.676 6.676 0 0 1 1.084-.44 9.112 9.112 0 0 1 1.162-.283 9.6 9.6 0 0 1 1.856-.215A6.007 6.007 0 0 1 11.5 2.8a4.509 4.509 0 0 1 1.484.713 2.958 2.958 0 0 1 1.367 2.461 41.71 41.71 0 0 1-1.875 9.844q-.6 2.187-1.367 4.375 4.727-3.652 5.732-4.483t2.217-2a19.119 19.119 0 0 0 2.129-2.422A9.277 9.277 0 0 0 23.183 5.8a3.048 3.048 0 0 0-.527-1.777.925.925 0 0 1-.156-.488.609.609 0 0 1 .185-.43 1.641 1.641 0 0 1 .459-.332 3.349 3.349 0 0 1 1.3-.215 2.959 2.959 0 0 1 1.426.342 3.462 3.462 0 0 1 1.064.869 4.043 4.043 0 0 1 .84 2.568 7.208 7.208 0 0 1-.605 2.891 11.139 11.139 0 0 1-1.612 2.627 18.374 18.374 0 0 1-2.315 2.345q-1.308 1.113-2.715 2.129l-2.852 2.031q-1.405.976-2.617 1.953a17.778 17.778 0 0 1 3.321 3.887l1.5 2.246A14.387 14.387 0 0 0 22.5 29.7a2.974 2.974 0 0 0 1.65.771 2.375 2.375 0 0 0 1.064-.2 1.582 1.582 0 0 1 .645-.2"/>
        <path data-name="패스 1613" d="M34.414 29.278q.508 0 .508.664a2.842 2.842 0 0 1-.8 1.816 3.931 3.931 0 0 1-3.144 1.367 3.107 3.107 0 0 1-3.106-1.836 3.557 3.557 0 0 1-.312-1.562 7.452 7.452 0 0 1 .322-2.041q.323-1.124.8-2.364t1.045-2.509l1.035-2.461a12.842 12.842 0 0 0 1.138-3.633 2.388 2.388 0 0 0-.186-1.162 1.677 1.677 0 0 0-.4-.44l-.391-.273a.545.545 0 0 1-.195-.479 1.007 1.007 0 0 1 .263-.654 2.422 2.422 0 0 1 .694-.547 4.441 4.441 0 0 1 2.051-.449q2.871 0 2.871 1.5a10.838 10.838 0 0 1-.918 4.014q-.919 2.256-1.563 3.642l-1.172 2.7a12.689 12.689 0 0 0-1.289 4.277.759.759 0 0 0 .86.859 2.92 2.92 0 0 0 1.269-.215 1.651 1.651 0 0 1 .625-.214m4-21.143a3.566 3.566 0 0 1-.977.742 3.292 3.292 0 0 1-1.152.352 2.075 2.075 0 0 1-1.142-.186 2.7 2.7 0 0 1-.928-.722 3.031 3.031 0 0 1-.84-1.973 2.782 2.782 0 0 1 .32-1.494 2.681 2.681 0 0 1 .811-.811 3.3 3.3 0 0 1 1.767-.605 5.484 5.484 0 0 1 1.289.117 2.577 2.577 0 0 1 .85.391 1.868 1.868 0 0 1 .957 1.572 3.929 3.929 0 0 1-.264 1.543 3.666 3.666 0 0 1-.693 1.074"/>
        <path data-name="패스 1614" d="M40.273 32.148a3.821 3.821 0 0 1-.791-1.3 5.113 5.113 0 0 1-.3-1.836 11.272 11.272 0 0 1 .479-2.8q.479-1.758 1.22-4l1.641-4.864q3.5-10.155 4.043-15.7Q46.738 0 48.164 0a2.449 2.449 0 0 1 1.484.429 2.3 2.3 0 0 1 1.094 1.914 15.037 15.037 0 0 1-.371 2.569q-.333 1.512-.86 3.3t-1.211 3.78l-2.7 7.929q-2.325 6.758-2.324 8.731 0 1.054.859 1.055a3.184 3.184 0 0 0 1.494-.352A2.774 2.774 0 0 1 46.5 29a.363.363 0 0 1 .411.411 3.423 3.423 0 0 1-1.778 2.91 4 4 0 0 1-2.177.8 4.491 4.491 0 0 1-1.592-.235 3.01 3.01 0 0 1-1.094-.742"/>
        <path data-name="패스 1615" d="M52.305 31.6a5.407 5.407 0 0 1-1.29-1.983 8.085 8.085 0 0 1-.488-2.842 12.966 12.966 0 0 1 .4-3.32 16.113 16.113 0 0 1 1.191-3.242 16.41 16.41 0 0 1 1.855-2.93 14.08 14.08 0 0 1 2.394-2.383 9.611 9.611 0 0 1 5.918-2.187 5.362 5.362 0 0 1 5.449 3.535 10.089 10.089 0 0 1 .117 6.191 16.059 16.059 0 0 1-3.007 6.133 12.113 12.113 0 0 1-5.118 3.965 7.9 7.9 0 0 1-2.92.586 8.151 8.151 0 0 1-2.558-.371 5.089 5.089 0 0 1-1.943-1.152m3.73-9.473a18.884 18.884 0 0 0-.928 2.969 12.4 12.4 0 0 0-.322 2.881 4.833 4.833 0 0 0 .42 2.129 1.358 1.358 0 0 0 1.3.771 3.033 3.033 0 0 0 1.767-.615 8.6 8.6 0 0 0 1.69-1.631 15.524 15.524 0 0 0 1.538-2.342 22.352 22.352 0 0 0 1.269-2.773 15.342 15.342 0 0 0 1.153-5.586q0-2.15-.879-2.735a1.774 1.774 0 0 0-.987-.234 2.644 2.644 0 0 0-1.455.576 8.775 8.775 0 0 0-1.64 1.553 16.225 16.225 0 0 0-1.582 2.285 21.56 21.56 0 0 0-1.348 2.754"/>
        <path data-name="패스 1616" d="M85.781 16.406q-1.131 0-4.14 3.281-2.246 2.559-3.262 3.848l-1.758 2.227q-1.133 2.148-1.777 3.574L73.789 31.6a5.573 5.573 0 0 1-.713 1.181 1.04 1.04 0 0 1-.82.342 2.725 2.725 0 0 1-1-.186 2.959 2.959 0 0 1-.83-.478 1.786 1.786 0 0 1-.742-1.367 3.449 3.449 0 0 1 .429-1.153l.743-1.582q.351-.7.82-1.8l1.094-2.675q2.3-5.761 2.3-7.442a1.537 1.537 0 0 0-.586-1.328l-.39-.273a.545.545 0 0 1-.2-.479 1 1 0 0 1 .264-.654 2.4 2.4 0 0 1 .693-.547 3.844 3.844 0 0 1 1.768-.449 4.006 4.006 0 0 1 1.4.195 2.815 2.815 0 0 1 .879.527 1.954 1.954 0 0 1 .743 1.426 5.931 5.931 0 0 1-.2 1.494 14.817 14.817 0 0 1-.488 1.524q-.292.771-.625 1.494-.781 1.68-.967 2.06c-.124.254-.159.349-.107.284q3.575-4.629 4.3-5.469a18.514 18.514 0 0 1 2.343-2.383 4.963 4.963 0 0 1 2.92-1.152 2.9 2.9 0 0 1 2.2.859 3.149 3.149 0 0 1 .82 2.266 8.389 8.389 0 0 1-.625 2.89q-.625 1.661-.84 2.325l2.871-3.789 1.6-1.914a8.608 8.608 0 0 1 2.539-2.129 4.5 4.5 0 0 1 1.787-.508 3.855 3.855 0 0 1 1.367.254 3.183 3.183 0 0 1 1.143.722 3.36 3.36 0 0 1 1 2.539 7.752 7.752 0 0 1-.7 3.125q-.7 1.6-1.231 2.627t-1.015 2.061a12.667 12.667 0 0 0-1.426 4.609q0 1.054.859 1.055a3.172 3.172 0 0 0 1.494-.352 2.751 2.751 0 0 1 .871-.35.363.363 0 0 1 .411.41 3.423 3.423 0 0 1-1.778 2.91 4 4 0 0 1-2.178.8 4.492 4.492 0 0 1-1.591-.234 3.026 3.026 0 0 1-1.094-.743 3.911 3.911 0 0 1-1.094-2.832 10.815 10.815 0 0 1 .43-3.125 24.5 24.5 0 0 1 1.015-2.763q.586-1.338 1.182-2.461t.908-1.787a5.6 5.6 0 0 0 .625-2.012q0-.762-.8-.762-1.056 0-3.79 3.5-2.068 2.715-2.871 3.907l-1.347 1.953q-1.132 2.148-1.739 3.574l-1 2.266a5.749 5.749 0 0 1-.644 1.181.923.923 0 0 1-.762.342 2.925 2.925 0 0 1-.947-.156 2.811 2.811 0 0 1-.791-.41 1.555 1.555 0 0 1-.762-1.2 5.275 5.275 0 0 1 .42-1.738q.42-1.1 1.045-2.471l2.734-5.781a14.63 14.63 0 0 0 1.465-4.092c0-.579-.266-.869-.8-.869m1.934 5.508a.018.018 0 0 0 .02-.02l.019-.039c-.026.027-.039.046-.039.059"/>
        <path data-name="패스 1617" d="M103.848 26.094a12.769 12.769 0 0 1 .566-3.253 15.7 15.7 0 0 1 1.309-3.008 17.664 17.664 0 0 1 1.924-2.753 15.1 15.1 0 0 1 2.392-2.275 9.363 9.363 0 0 1 5.645-2.09 4.334 4.334 0 0 1 4.453 2.754 5.509 5.509 0 0 1 .371 2.217 6.142 6.142 0 0 1-.488 2.363 6.865 6.865 0 0 1-1.3 1.972 9.438 9.438 0 0 1-1.973 1.592 13.434 13.434 0 0 1-2.49 1.191 18.445 18.445 0 0 1-5.938 1.017 3.679 3.679 0 0 0-.1.82 5.244 5.244 0 0 0 .117 1.22 3.555 3.555 0 0 0 .469 1.2 2.235 2.235 0 0 0 2.031 1.171 8.289 8.289 0 0 0 4.414-1.328 6.257 6.257 0 0 0 1.24-.927 1.315 1.315 0 0 1 .83-.479.741.741 0 0 1 .616.42 1.752 1.752 0 0 1 .263.948 2.865 2.865 0 0 1-.586 1.8q-2.46 2.46-7.324 2.46a6.269 6.269 0 0 1-4.609-1.719 6.82 6.82 0 0 1-1.836-5.312m11.406-10.781q-2.05 0-3.945 2.812a21.172 21.172 0 0 0-2.578 5.743 9.506 9.506 0 0 0 5.664-2.578q2.207-2.112 2.207-4.043t-1.348-1.934"/>
        <path data-name="패스 1618" d="M133.887 27.813q.567 0 .566.762a2.276 2.276 0 0 1-.39 1.25 5.474 5.474 0 0 1-2.11 2.147 6.634 6.634 0 0 1-3.613 1.152 3.728 3.728 0 0 1-3.984-2.811q-1-3.342 2.988-14.16-2.246-.2-2.441-.781a1.216 1.216 0 0 1-.059-.381.891.891 0 0 1 .186-.479 2.729 2.729 0 0 1 .478-.527 2.163 2.163 0 0 1 1.387-.568h1.543q2.109-4.938 3.008-5.625a1.589 1.589 0 0 1 .957-.312 2.449 2.449 0 0 1 .879.138 1.939 1.939 0 0 1 .625.389 1.764 1.764 0 0 1 .625 1.309 2.2 2.2 0 0 1-.235.9l-1.445 3.145h.469q1.211 0 1.953-.02l1.113-.02c.247-.013.557-.02.928-.02s.556.138.556.41q0 2.58-6.093 2.58h-.157l-1.328 3.436q-2.245 6.1-2.246 8.535a1.635 1.635 0 0 0 .313 1.065 1.455 1.455 0 0 0 1.172.381 4.029 4.029 0 0 0 1.562-.293 6.848 6.848 0 0 0 1.231-.654q.526-.363.908-.654a1.152 1.152 0 0 1 .654-.293"/>
        <path data-name="패스 1619" d="M137.071 26.094a12.77 12.77 0 0 1 .566-3.253 15.7 15.7 0 0 1 1.309-3.008 17.665 17.665 0 0 1 1.924-2.753 15.1 15.1 0 0 1 2.392-2.275 9.363 9.363 0 0 1 5.645-2.09 4.334 4.334 0 0 1 4.453 2.754 5.509 5.509 0 0 1 .371 2.217 6.143 6.143 0 0 1-.488 2.363 6.865 6.865 0 0 1-1.3 1.972 9.438 9.438 0 0 1-1.973 1.592 13.434 13.434 0 0 1-2.49 1.191 18.445 18.445 0 0 1-5.938 1.017 3.679 3.679 0 0 0-.1.82 5.243 5.243 0 0 0 .117 1.22 3.555 3.555 0 0 0 .469 1.2 2.235 2.235 0 0 0 2.031 1.171 8.289 8.289 0 0 0 4.414-1.328 6.258 6.258 0 0 0 1.24-.927 1.315 1.315 0 0 1 .83-.479.741.741 0 0 1 .616.42 1.752 1.752 0 0 1 .263.948 2.864 2.864 0 0 1-.586 1.8q-2.46 2.46-7.324 2.46a6.269 6.269 0 0 1-4.609-1.719 6.82 6.82 0 0 1-1.836-5.312m11.406-10.781q-2.051 0-3.945 2.812a21.172 21.172 0 0 0-2.578 5.743 9.506 9.506 0 0 0 5.664-2.578q2.207-2.112 2.207-4.043t-1.348-1.934"/>
        <path data-name="패스 1620" d="M155.82 32.461a2.55 2.55 0 0 1-.625-.654 1.412 1.412 0 0 1-.254-.625 1.7 1.7 0 0 1 .108-.645q.126-.381.341-.928 3.985-9.8 3.985-13.164a1.606 1.606 0 0 0-.645-1.328l-.39-.273a.6.6 0 0 1-.186-.479.977.977 0 0 1 .244-.654 2.338 2.338 0 0 1 .664-.547 3.616 3.616 0 0 1 1.729-.449 3.926 3.926 0 0 1 1.386.195 2.593 2.593 0 0 1 .85.528 2.084 2.084 0 0 1 .752 1.484 6.588 6.588 0 0 1-.179 1.578q-.186.8-.439 1.572t-.508 1.465a10.1 10.1 0 0 0-.332 1.025 2.7 2.7 0 0 0-.117.86 1.666 1.666 0 0 0 .566-.8l.762-1.445q2.538-4.571 4.961-6.055a3.3 3.3 0 0 1 1.689-.41 2.012 2.012 0 0 1 1.592.693 2.419 2.419 0 0 1 .635 1.533 4.966 4.966 0 0 1-.117 1.4 4.015 4.015 0 0 1-.44 1.045 1.843 1.843 0 0 1-1.562 1.094.727.727 0 0 1-.469-.176l-.43-.371a1.919 1.919 0 0 0-1.24-.567 2.379 2.379 0 0 0-1.445.782 14.5 14.5 0 0 0-1.768 2.011A37.39 37.39 0 0 0 159.9 29.3l-.859 2.266a6.306 6.306 0 0 1-.586 1.2.859.859 0 0 1-.752.361 2.828 2.828 0 0 1-1-.185 3.583 3.583 0 0 1-.889-.479"/>
    </g>
</svg>
